<svg xmlns="http://www.w3.org/2000/svg" viewBox="0 0 700 700" width="100%" height="100%">
  <g id="compass-rose">
    <polygon points="338.55,215.49 361.45,215.49 350.00,203.55" fill="#FFE135" stroke="#FDFAF0" stroke-width="1"/>
    <polygon points="361.45,215.49 384.02,219.36 384.82,146.94" fill="#FFD700" stroke="#FDFAF0" stroke-width="1"/>
    <polygon points="384.02,219.36 405.61,226.98 405.10,194.05" fill="#FFC300" stroke="#FDFAF0" stroke-width="1"/>
    <polygon points="405.61,226.98 425.60,238.15 459.72,153.59" fill="#FFB300" stroke="#FDFAF0" stroke-width="1"/>
    <polygon points="425.60,238.15 443.41,252.54 465.82,206.56" fill="#F4D03F" stroke="#FDFAF0" stroke-width="1"/>
    <polygon points="443.41,252.54 458.54,269.72 533.11,188.84" fill="#F1C40F" stroke="#FDFAF0" stroke-width="1"/>
    <polygon points="458.54,269.72 470.54,289.22 523.13,243.40" fill="#E6C200" stroke="#FDFAF0" stroke-width="1"/>
    <polygon points="470.54,289.22 479.08,310.47 500.96,289.34" fill="#FFE135" stroke="#FDFAF0" stroke-width="1"/>
    <polygon points="479.08,310.47 483.91,332.85 567.28,303.17" fill="#FFD700" stroke="#FDFAF0" stroke-width="1"/>
    <polygon points="483.91,332.85 484.88,355.73 531.49,342.29" fill="#FFC300" stroke="#FDFAF0" stroke-width="1"/>
    <polygon points="484.88,355.73 481.97,378.44 589.27,380.64" fill="#FFB300" stroke="#FDFAF0" stroke-width="1"/>
    <polygon points="481.97,378.44 475.27,400.34 541.81,408.74" fill="#F4D03F" stroke="#FDFAF0" stroke-width="1"/>
    <polygon points="475.27,400.34 464.96,420.78 492.86,422.03" fill="#F1C40F" stroke="#FDFAF0" stroke-width="1"/>
    <polygon points="464.96,420.78 451.34,439.19 526.52,480.56" fill="#E6C200" stroke="#FDFAF0" stroke-width="1"/>
    <polygon points="451.34,439.19 434.81,455.03 473.82,479.19" fill="#FFE135" stroke="#FDFAF0" stroke-width="1"/>
    <polygon points="434.81,455.03 415.84,467.86 483.56,547.61" fill="#FFD700" stroke="#FDFAF0" stroke-width="1"/>
    <polygon points="415.84,467.86 394.97,477.29 431.51,530.33" fill="#FFC300" stroke="#FDFAF0" stroke-width="1"/>
    <polygon points="394.97,477.29 372.82,483.06 389.63,502.20" fill="#FFB300" stroke="#FDFAF0" stroke-width="1"/>
    <polygon points="372.82,483.06 350.00,485.00 368.39,566.07" fill="#F4D03F" stroke="#FDFAF0" stroke-width="1"/>
    <polygon points="350.00,485.00 327.18,483.06 335.05,525.60" fill="#F1C40F" stroke="#FDFAF0" stroke-width="1"/>
    <polygon points="327.18,483.06 305.03,477.29 290.58,578.20" fill="#E6C200" stroke="#FDFAF0" stroke-width="1"/>
    <polygon points="305.03,477.29 284.16,467.86 269.60,527.86" fill="#FFE135" stroke="#FDFAF0" stroke-width="1"/>
    <polygon points="284.16,467.86 265.19,455.03 263.44,478.06" fill="#FFD700" stroke="#FDFAF0" stroke-width="1"/>
    <polygon points="265.19,455.03 248.66,439.19 201.83,504.60" fill="#FFC300" stroke="#FDFAF0" stroke-width="1"/>
    <polygon points="248.66,439.19 235.04,420.78 210.49,453.18" fill="#FFB300" stroke="#FDFAF0" stroke-width="1"/>
    <polygon points="235.04,420.78 224.73,400.34 141.86,454.94" fill="#F4D03F" stroke="#FDFAF0" stroke-width="1"/>
    <polygon points="224.73,400.34 218.03,378.44 165.96,406.36" fill="#F1C40F" stroke="#FDFAF0" stroke-width="1"/>
    <polygon points="218.03,378.44 215.12,355.73 199.37,369.29" fill="#E6C200" stroke="#FDFAF0" stroke-width="1"/>
    <polygon points="215.12,355.73 216.09,332.85 138.76,341.03" fill="#FFE135" stroke="#FDFAF0" stroke-width="1"/>
    <polygon points="216.09,332.85 220.92,310.47 183.02,314.01" fill="#FFD700" stroke="#FDFAF0" stroke-width="1"/>
    <polygon points="220.92,310.47 229.46,289.22 136.22,264.10" fill="#FFC300" stroke="#FDFAF0" stroke-width="1"/>
    <polygon points="229.46,289.22 241.46,269.72 188.40,250.50" fill="#FFB300" stroke="#FDFAF0" stroke-width="1"/>
    <polygon points="241.46,269.72 256.59,252.54 238.03,251.46" fill="#F4D03F" stroke="#FDFAF0" stroke-width="1"/>
    <polygon points="256.59,252.54 274.40,238.15 218.87,187.60" fill="#F1C40F" stroke="#FDFAF0" stroke-width="1"/>
    <polygon points="274.40,238.15 294.39,226.98 268.01,203.24" fill="#E6C200" stroke="#FDFAF0" stroke-width="1"/>
    <polygon points="294.39,226.98 315.98,219.36 274.15,135.32" fill="#FFE135" stroke="#FDFAF0" stroke-width="1"/>
    <polygon points="315.98,219.36 338.55,215.49 318.39,165.63" fill="#FFD700" stroke="#FDFAF0" stroke-width="1"/>
  </g>
  <circle cx="350.0" cy="350.0" r="136" fill="none" stroke="#FFC300" stroke-width="6" opacity="0.5" />
  <circle cx="350.0" cy="350.0" r="117" fill="none" stroke="#FFC300" stroke-width="2" opacity="0.25" />
  <path d="M -64,0 L 82,0 A 82,82 0 0,0 -82,0 A 82,82 0 0,0 45.85,67.98" fill="none" stroke="#FFB300" stroke-width="50" stroke-linecap="round" stroke-linejoin="round" transform="translate(350.0, 350.0) rotate(-35)" />
</svg>