<svg xmlns="http://www.w3.org/2000/svg" viewBox="0 0 700 700" width="100%" height="100%">
  <g id="compass-rose">
    <polygon points="338.55,215.49 361.45,215.49 350.00,203.55" fill="#FFD700" stroke="#FDFAF0" stroke-width="1"/>
    <polygon points="361.45,215.49 384.02,219.36 384.36,149.61" fill="#FFC300" stroke="#FDFAF0" stroke-width="1"/>
    <polygon points="384.02,219.36 405.61,226.98 403.30,199.15" fill="#FFB300" stroke="#FDFAF0" stroke-width="1"/>
    <polygon points="405.61,226.98 425.60,238.15 455.76,160.69" fill="#F4D03F" stroke="#FDFAF0" stroke-width="1"/>
    <polygon points="425.60,238.15 443.41,252.54 459.01,214.99" fill="#F1C40F" stroke="#FDFAF0" stroke-width="1"/>
    <polygon points="443.41,252.54 458.54,269.72 522.95,197.79" fill="#E6C200" stroke="#FDFAF0" stroke-width="1"/>
    <polygon points="458.54,269.72 470.54,289.22 509.29,251.92" fill="#FFE135" stroke="#FDFAF0" stroke-width="1"/>
    <polygon points="470.54,289.22 479.08,310.47 576.34,259.05" fill="#FFD700" stroke="#FDFAF0" stroke-width="1"/>
    <polygon points="479.08,310.47 483.91,332.85 546.10,307.74" fill="#FFC300" stroke="#FDFAF0" stroke-width="1"/>
    <polygon points="483.91,332.85 484.88,355.73 507.14,343.32" fill="#FFB300" stroke="#FDFAF0" stroke-width="1"/>
    <polygon points="484.88,355.73 481.97,378.44 562.41,377.20" fill="#F4D03F" stroke="#FDFAF0" stroke-width="1"/>
    <polygon points="481.97,378.44 475.27,400.34 513.33,400.02" fill="#F1C40F" stroke="#FDFAF0" stroke-width="1"/>
    <polygon points="475.27,400.34 464.96,420.78 553.30,452.50" fill="#E6C200" stroke="#FDFAF0" stroke-width="1"/>
    <polygon points="464.96,420.78 451.34,439.19 498.22,459.63" fill="#FFE135" stroke="#FDFAF0" stroke-width="1"/>
    <polygon points="451.34,439.19 434.81,455.03 516.91,524.15" fill="#FFD700" stroke="#FDFAF0" stroke-width="1"/>
    <polygon points="434.81,455.03 415.84,467.86 460.82,513.96" fill="#FFC300" stroke="#FDFAF0" stroke-width="1"/>
    <polygon points="415.84,467.86 394.97,477.29 413.67,490.85" fill="#FFB300" stroke="#FDFAF0" stroke-width="1"/>
    <polygon points="394.97,477.29 372.82,483.06 403.28,554.61" fill="#F4D03F" stroke="#FDFAF0" stroke-width="1"/>
    <polygon points="372.82,483.06 350.00,485.00 364.26,517.51" fill="#F1C40F" stroke="#FDFAF0" stroke-width="1"/>
    <polygon points="350.00,485.00 327.18,483.06 330.92,574.16" fill="#E6C200" stroke="#FDFAF0" stroke-width="1"/>
    <polygon points="327.18,483.06 305.03,477.29 304.23,525.79" fill="#FFE135" stroke="#FDFAF0" stroke-width="1"/>
    <polygon points="305.03,477.29 284.16,467.86 251.76,567.34" fill="#FFD700" stroke="#FDFAF0" stroke-width="1"/>
    <polygon points="284.16,467.86 265.19,455.03 240.70,511.72" fill="#FFC300" stroke="#FDFAF0" stroke-width="1"/>
    <polygon points="265.19,455.03 248.66,439.19 244.92,459.64" fill="#FFB300" stroke="#FDFAF0" stroke-width="1"/>
    <polygon points="248.66,439.19 235.04,420.78 182.18,474.12" fill="#F4D03F" stroke="#FDFAF0" stroke-width="1"/>
    <polygon points="235.04,420.78 224.73,400.34 202.31,424.47" fill="#F1C40F" stroke="#FDFAF0" stroke-width="1"/>
    <polygon points="224.73,400.34 218.03,378.44 137.48,415.08" fill="#E6C200" stroke="#FDFAF0" stroke-width="1"/>
    <polygon points="218.03,378.44 215.12,355.73 172.51,372.73" fill="#FFE135" stroke="#FDFAF0" stroke-width="1"/>
    <polygon points="215.12,355.73 216.09,332.85 114.41,339.99" fill="#FFD700" stroke="#FDFAF0" stroke-width="1"/>
    <polygon points="216.09,332.85 220.92,310.47 161.84,309.45" fill="#FFC300" stroke="#FDFAF0" stroke-width="1"/>
    <polygon points="220.92,310.47 229.46,289.22 211.60,294.39" fill="#FFB300" stroke="#FDFAF0" stroke-width="1"/>
    <polygon points="229.46,289.22 241.46,269.72 174.57,241.98" fill="#F4D03F" stroke="#FDFAF0" stroke-width="1"/>
    <polygon points="241.46,269.72 256.59,252.54 227.87,242.51" fill="#F1C40F" stroke="#FDFAF0" stroke-width="1"/>
    <polygon points="256.59,252.54 274.40,238.15 212.07,179.18" fill="#E6C200" stroke="#FDFAF0" stroke-width="1"/>
    <polygon points="274.40,238.15 294.39,226.98 264.05,196.15" fill="#FFE135" stroke="#FDFAF0" stroke-width="1"/>
    <polygon points="294.39,226.98 315.98,219.36 272.35,130.22" fill="#FFD700" stroke="#FDFAF0" stroke-width="1"/>
    <polygon points="315.98,219.36 338.55,215.49 317.93,162.96" fill="#FFC300" stroke="#FDFAF0" stroke-width="1"/>
  </g>
  <circle cx="350.0" cy="350.0" r="136" fill="none" stroke="#FFC300" stroke-width="6" opacity="0.5" />
  <circle cx="350.0" cy="350.0" r="117" fill="none" stroke="#FFC300" stroke-width="2" opacity="0.25" />
  <path d="M -64,0 L 82,0 A 82,82 0 0,0 -82,0 A 82,82 0 0,0 45.85,67.98" fill="none" stroke="#FFB300" stroke-width="50" stroke-linecap="round" stroke-linejoin="round" transform="translate(350.0, 350.0) rotate(-35)" />
</svg>