<svg xmlns="http://www.w3.org/2000/svg" viewBox="0 0 700 700" width="100%" height="100%">
  <g id="compass-rose">
    <polygon points="338.55,215.49 361.45,215.49 350.00,203.55" fill="#FFB300" stroke="#FDFAF0" stroke-width="1"/>
    <polygon points="361.45,215.49 384.02,219.36 387.11,133.60" fill="#F4D03F" stroke="#FDFAF0" stroke-width="1"/>
    <polygon points="384.02,219.36 405.61,226.98 414.12,168.51" fill="#F1C40F" stroke="#FDFAF0" stroke-width="1"/>
    <polygon points="405.61,226.98 425.60,238.15 430.67,205.60" fill="#E6C200" stroke="#FDFAF0" stroke-width="1"/>
    <polygon points="425.60,238.15 443.41,252.54 499.84,164.43" fill="#FFE135" stroke="#FDFAF0" stroke-width="1"/>
    <polygon points="443.41,252.54 458.54,269.72 508.72,210.31" fill="#FFD700" stroke="#FDFAF0" stroke-width="1"/>
    <polygon points="458.54,269.72 470.54,289.22 506.99,253.34" fill="#FFC300" stroke="#FDFAF0" stroke-width="1"/>
    <polygon points="470.54,289.22 479.08,310.47 495.94,291.36" fill="#FFB300" stroke="#FDFAF0" stroke-width="1"/>
    <polygon points="479.08,310.47 483.91,332.85 575.22,301.46" fill="#F4D03F" stroke="#FDFAF0" stroke-width="1"/>
    <polygon points="483.91,332.85 484.88,355.73 553.13,341.37" fill="#F1C40F" stroke="#FDFAF0" stroke-width="1"/>
    <polygon points="484.88,355.73 481.97,378.44 524.81,372.38" fill="#E6C200" stroke="#FDFAF0" stroke-width="1"/>
    <polygon points="481.97,378.44 475.27,400.34 492.62,393.68" fill="#FFE135" stroke="#FDFAF0" stroke-width="1"/>
    <polygon points="475.27,400.34 464.96,420.78 548.47,450.06" fill="#FFD700" stroke="#FDFAF0" stroke-width="1"/>
    <polygon points="464.96,420.78 451.34,439.19 506.93,466.07" fill="#FFC300" stroke="#FDFAF0" stroke-width="1"/>
    <polygon points="451.34,439.19 434.81,455.03 466.32,471.37" fill="#FFB300" stroke="#FDFAF0" stroke-width="1"/>
    <polygon points="434.81,455.03 415.84,467.86 485.08,549.85" fill="#F4D03F" stroke="#FDFAF0" stroke-width="1"/>
    <polygon points="415.84,467.86 394.97,477.29 438.21,545.13" fill="#F1C40F" stroke="#FDFAF0" stroke-width="1"/>
    <polygon points="394.97,477.29 372.82,483.06 397.14,531.03" fill="#E6C200" stroke="#FDFAF0" stroke-width="1"/>
    <polygon points="372.82,483.06 350.00,485.00 363.57,509.41" fill="#FFE135" stroke="#FDFAF0" stroke-width="1"/>
    <polygon points="350.00,485.00 327.18,483.06 330.23,582.26" fill="#FFD700" stroke="#FDFAF0" stroke-width="1"/>
    <polygon points="327.18,483.06 305.03,477.29 298.09,549.37" fill="#FFC300" stroke="#FDFAF0" stroke-width="1"/>
    <polygon points="305.03,477.29 284.16,467.86 276.29,513.06" fill="#FFB300" stroke="#FDFAF0" stroke-width="1"/>
    <polygon points="284.16,467.86 265.19,455.03 264.96,475.82" fill="#F4D03F" stroke="#FDFAF0" stroke-width="1"/>
    <polygon points="265.19,455.03 248.66,439.19 194.33,512.42" fill="#F1C40F" stroke="#FDFAF0" stroke-width="1"/>
    <polygon points="248.66,439.19 235.04,420.78 190.89,467.68" fill="#E6C200" stroke="#FDFAF0" stroke-width="1"/>
    <polygon points="235.04,420.78 224.73,400.34 197.47,426.90" fill="#FFE135" stroke="#FDFAF0" stroke-width="1"/>
    <polygon points="224.73,400.34 218.03,378.44 116.76,421.43" fill="#FFD700" stroke="#FDFAF0" stroke-width="1"/>
    <polygon points="218.03,378.44 215.12,355.73 134.91,377.54" fill="#FFC300" stroke="#FDFAF0" stroke-width="1"/>
    <polygon points="215.12,355.73 216.09,332.85 160.40,341.95" fill="#FFB300" stroke="#FDFAF0" stroke-width="1"/>
    <polygon points="216.09,332.85 220.92,310.47 190.96,315.72" fill="#F4D03F" stroke="#FDFAF0" stroke-width="1"/>
    <polygon points="220.92,310.47 229.46,289.22 131.20,262.08" fill="#F1C40F" stroke="#FDFAF0" stroke-width="1"/>
    <polygon points="229.46,289.22 241.46,269.72 172.26,240.56" fill="#E6C200" stroke="#FDFAF0" stroke-width="1"/>
    <polygon points="241.46,269.72 256.59,252.54 213.64,229.99" fill="#FFE135" stroke="#FDFAF0" stroke-width="1"/>
    <polygon points="256.59,252.54 274.40,238.15 252.89,229.74" fill="#FFD700" stroke="#FDFAF0" stroke-width="1"/>
    <polygon points="274.40,238.15 294.39,226.98 238.96,151.23" fill="#FFC300" stroke="#FDFAF0" stroke-width="1"/>
    <polygon points="294.39,226.98 315.98,219.36 283.17,160.86" fill="#FFB300" stroke="#FDFAF0" stroke-width="1"/>
    <polygon points="315.98,219.36 338.55,215.49 320.67,178.97" fill="#F4D03F" stroke="#FDFAF0" stroke-width="1"/>
  </g>
  <circle cx="350.0" cy="350.0" r="136" fill="none" stroke="#FFC300" stroke-width="6" opacity="0.5" />
  <circle cx="350.0" cy="350.0" r="117" fill="none" stroke="#FFC300" stroke-width="2" opacity="0.25" />
  <path d="M -64,0 L 82,0 A 82,82 0 0,0 -82,0 A 82,82 0 0,0 45.85,67.98" fill="none" stroke="#FFB300" stroke-width="50" stroke-linecap="round" stroke-linejoin="round" transform="translate(350.0, 350.0) rotate(-35)" />
</svg>