<svg xmlns="http://www.w3.org/2000/svg" viewBox="0 0 700 700" width="100%" height="100%">
  <g id="compass-rose">
    <polygon points="338.55,215.49 361.45,215.49 350.00,203.55" fill="#FFE135" stroke="#FDFAF0" stroke-width="1"/>
    <polygon points="361.45,215.49 384.02,219.36 386.19,138.94" fill="#FFD700" stroke="#FDFAF0" stroke-width="1"/>
    <polygon points="384.02,219.36 405.61,226.98 410.51,178.73" fill="#FFC300" stroke="#FDFAF0" stroke-width="1"/>
    <polygon points="405.61,226.98 425.60,238.15 422.74,219.78" fill="#FFB300" stroke="#FDFAF0" stroke-width="1"/>
    <polygon points="425.60,238.15 443.41,252.54 486.23,181.28" fill="#F4D03F" stroke="#FDFAF0" stroke-width="1"/>
    <polygon points="443.41,252.54 458.54,269.72 488.39,228.20" fill="#F1C40F" stroke="#FDFAF0" stroke-width="1"/>
    <polygon points="458.54,269.72 470.54,289.22 479.32,270.38" fill="#E6C200" stroke="#FDFAF0" stroke-width="1"/>
    <polygon points="470.54,289.22 479.08,310.47 553.73,268.14" fill="#FFE135" stroke="#FDFAF0" stroke-width="1"/>
    <polygon points="479.08,310.47 483.91,332.85 532.87,310.59" fill="#FFD700" stroke="#FDFAF0" stroke-width="1"/>
    <polygon points="483.91,332.85 484.88,355.73 504.43,343.44" fill="#FFC300" stroke="#FDFAF0" stroke-width="1"/>
    <polygon points="484.88,355.73 481.97,378.44 570.47,378.23" fill="#FFB300" stroke="#FDFAF0" stroke-width="1"/>
    <polygon points="481.97,378.44 475.27,400.34 531.45,405.57" fill="#F4D03F" stroke="#FDFAF0" stroke-width="1"/>
    <polygon points="475.27,400.34 464.96,420.78 490.44,420.81" fill="#F1C40F" stroke="#FDFAF0" stroke-width="1"/>
    <polygon points="464.96,420.78 451.34,439.19 530.88,483.78" fill="#E6C200" stroke="#FDFAF0" stroke-width="1"/>
    <polygon points="451.34,439.19 434.81,455.03 483.18,488.96" fill="#FFE135" stroke="#FDFAF0" stroke-width="1"/>
    <polygon points="434.81,455.03 415.84,467.86 439.59,482.55" fill="#FFD700" stroke="#FDFAF0" stroke-width="1"/>
    <polygon points="415.84,467.86 394.97,477.29 443.78,557.47" fill="#FFC300" stroke="#FDFAF0" stroke-width="1"/>
    <polygon points="394.97,477.29 372.82,483.06 399.18,538.89" fill="#FFB300" stroke="#FDFAF0" stroke-width="1"/>
    <polygon points="372.82,483.06 350.00,485.00 363.80,512.11" fill="#F4D03F" stroke="#FDFAF0" stroke-width="1"/>
    <polygon points="350.00,485.00 327.18,483.06 330.46,579.56" fill="#F1C40F" stroke="#FDFAF0" stroke-width="1"/>
    <polygon points="327.18,483.06 305.03,477.29 300.13,541.51" fill="#E6C200" stroke="#FDFAF0" stroke-width="1"/>
    <polygon points="305.03,477.29 284.16,467.86 281.87,500.72" fill="#FFE135" stroke="#FDFAF0" stroke-width="1"/>
    <polygon points="284.16,467.86 265.19,455.03 219.47,543.12" fill="#FFD700" stroke="#FDFAF0" stroke-width="1"/>
    <polygon points="265.19,455.03 248.66,439.19 211.19,494.83" fill="#FFC300" stroke="#FDFAF0" stroke-width="1"/>
    <polygon points="248.66,439.19 235.04,420.78 214.84,449.96" fill="#FFB300" stroke="#FDFAF0" stroke-width="1"/>
    <polygon points="235.04,420.78 224.73,400.34 139.44,456.16" fill="#F4D03F" stroke="#FDFAF0" stroke-width="1"/>
    <polygon points="224.73,400.34 218.03,378.44 155.60,409.53" fill="#F1C40F" stroke="#FDFAF0" stroke-width="1"/>
    <polygon points="218.03,378.44 215.12,355.73 180.56,371.70" fill="#E6C200" stroke="#FDFAF0" stroke-width="1"/>
    <polygon points="215.12,355.73 216.09,332.85 111.70,339.88" fill="#FFE135" stroke="#FDFAF0" stroke-width="1"/>
    <polygon points="216.09,332.85 220.92,310.47 148.60,306.60" fill="#FFD700" stroke="#FDFAF0" stroke-width="1"/>
    <polygon points="220.92,310.47 229.46,289.22 188.99,285.30" fill="#FFC300" stroke="#FDFAF0" stroke-width="1"/>
    <polygon points="229.46,289.22 241.46,269.72 144.59,223.53" fill="#FFB300" stroke="#FDFAF0" stroke-width="1"/>
    <polygon points="241.46,269.72 256.59,252.54 193.31,212.10" fill="#F4D03F" stroke="#FDFAF0" stroke-width="1"/>
    <polygon points="256.59,252.54 274.40,238.15 239.29,212.88" fill="#F1C40F" stroke="#FDFAF0" stroke-width="1"/>
    <polygon points="274.40,238.15 294.39,226.98 231.04,137.05" fill="#E6C200" stroke="#FDFAF0" stroke-width="1"/>
    <polygon points="294.39,226.98 315.98,219.36 279.56,150.64" fill="#FFE135" stroke="#FDFAF0" stroke-width="1"/>
    <polygon points="315.98,219.36 338.55,215.49 319.76,173.63" fill="#FFD700" stroke="#FDFAF0" stroke-width="1"/>
  </g>
  <circle cx="350.0" cy="350.0" r="136" fill="none" stroke="#FFC300" stroke-width="6" opacity="0.5" />
  <circle cx="350.0" cy="350.0" r="117" fill="none" stroke="#FFC300" stroke-width="2" opacity="0.25" />
  <path d="M -64,0 L 82,0 A 82,82 0 0,0 -82,0 A 82,82 0 0,0 45.85,67.98" fill="none" stroke="#FFB300" stroke-width="50" stroke-linecap="round" stroke-linejoin="round" transform="translate(350.0, 350.0) rotate(-35)" />
</svg>